/* XPM */
static char * rockdodger_xpm[] = {
"64 64 398 2",
"  	c None",
". 	c #00FF00",
"+ 	c #000000",
"@ 	c #383869",
"# 	c #1D1DA3",
"$ 	c #1D1DA1",
"% 	c #2121B7",
"& 	c #2424C7",
"* 	c #2525CE",
"= 	c #2525CF",
"- 	c #2626CF",
"; 	c #2727CC",
"> 	c #2727CA",
", 	c #2E2EA7",
"' 	c #39396B",
") 	c #42425D",
"! 	c #434348",
"~ 	c #24249E",
"{ 	c #2626D1",
"] 	c #2626D0",
"^ 	c #2424C5",
"/ 	c #2525BB",
"( 	c #343493",
"_ 	c #414160",
": 	c #2A2A8C",
"< 	c #2121B5",
"[ 	c #2323C0",
"} 	c #2424C6",
"| 	c #2525CD",
"1 	c #2E2EAB",
"2 	c #42425B",
"3 	c #404055",
"4 	c #262677",
"5 	c #1B1B87",
"6 	c #29297E",
"7 	c #2A2A95",
"8 	c #2828B6",
"9 	c #2828C0",
"0 	c #2525C3",
"a 	c #2525CB",
"b 	c #2323C1",
"c 	c #2020B2",
"d 	c #3E3E63",
"e 	c #474747",
"f 	c #3E3E68",
"g 	c #353583",
"h 	c #2222BD",
"i 	c #2525CC",
"j 	c #2323C3",
"k 	c #1F1F77",
"l 	c #3D3D58",
"m 	c #3B3B69",
"n 	c #353592",
"o 	c #443FA0",
"p 	c #746597",
"q 	c #736F78",
"r 	c #494D57",
"s 	c #353942",
"t 	c #43434A",
"u 	c #3A3A67",
"v 	c #38387F",
"w 	c #5F4E7C",
"x 	c #D9939A",
"y 	c #FEC2C2",
"z 	c #F3BEC0",
"A 	c #B99099",
"B 	c #B9949E",
"C 	c #F29FA0",
"D 	c #B8717B",
"E 	c #222141",
"F 	c #161B3D",
"G 	c #2B2846",
"H 	c #1F2B46",
"I 	c #5D5555",
"J 	c #F09393",
"K 	c #FFACAC",
"L 	c #FEB7B7",
"M 	c #FFC6C6",
"N 	c #C098A1",
"O 	c #303250",
"P 	c #30314F",
"Q 	c #BF737C",
"R 	c #B86E78",
"S 	c #13193C",
"T 	c #001035",
"U 	c #011035",
"V 	c #081538",
"W 	c #2A303E",
"X 	c #E8A9BA",
"Y 	c #EEB6C4",
"Z 	c #F2C6D0",
"` 	c #F7B7BD",
" .	c #FEBBBC",
"..	c #FF9B9B",
"+.	c #E48387",
"@.	c #855365",
"#.	c #845264",
"$.	c #E07E82",
"%.	c #EB7E7F",
"&.	c #9E5663",
"*.	c #432D48",
"=.	c #171A3B",
"-.	c #021136",
";.	c #031136",
">.	c #604557",
",.	c #EFC089",
"'.	c #EFC372",
").	c #EE9888",
"!.	c #E08383",
"~.	c #D27B7B",
"{.	c #DC8282",
"].	c #3F3FCE",
"^.	c #9488DD",
"/.	c #BAACE4",
"(.	c #B4A5E2",
"_.	c #B497D1",
":.	c #9B7BB8",
"<.	c #CC95BC",
"[.	c #D592B0",
"}.	c #CA859F",
"|.	c #CF819A",
"1.	c #E47784",
"2.	c #EE6466",
"3.	c #EE5B5B",
"4.	c #E85657",
"5.	c #BC4C54",
"6.	c #703548",
"7.	c #6F394D",
"8.	c #CF8263",
"9.	c #FAE26D",
"0.	c #FDE672",
"a.	c #F8A17B",
"b.	c #F57E7E",
"c.	c #F37777",
"d.	c #F67F7F",
"e.	c #FA8A8A",
"f.	c #FD8DA1",
"g.	c #FD86C8",
"h.	c #FC78C2",
"i.	c #F8869B",
"j.	c #FD9090",
"k.	c #FF9191",
"l.	c #E08888",
"m.	c #19197E",
"n.	c #1A1A7D",
"o.	c #1E1E7D",
"p.	c #282889",
"q.	c #3131C2",
"r.	c #3535CD",
"s.	c #3333CA",
"t.	c #3232C9",
"u.	c #3232C5",
"v.	c #2E2EC9",
"w.	c #2828CF",
"x.	c #2424D3",
"y.	c #2C2CD1",
"z.	c #2F2FC6",
"A.	c #2D2CAC",
"B.	c #8A4194",
"C.	c #CC4351",
"D.	c #DD4343",
"E.	c #EC4444",
"F.	c #ED4949",
"G.	c #E84B4B",
"H.	c #E94D4D",
"I.	c #EE7543",
"J.	c #FBD637",
"K.	c #FBD639",
"L.	c #F07846",
"M.	c #EC4D4D",
"N.	c #ED4C4C",
"O.	c #EE4B4B",
"P.	c #EE4F4F",
"Q.	c #F24A6B",
"R.	c #FC3EA9",
"S.	c #FC40AA",
"T.	c #F44466",
"U.	c #F24343",
"V.	c #F24242",
"W.	c #F14141",
"X.	c #F24141",
"Y.	c #6A6AA1",
"Z.	c #6D6D9F",
"`.	c #6E6E9E",
" +	c #717199",
".+	c #676799",
"++	c #68689A",
"@+	c #656290",
"#+	c #725A8A",
"$+	c #7C5182",
"%+	c #7F558C",
"&+	c #764E98",
"*+	c #6C4FA0",
"=+	c #6548A7",
"-+	c #4F43BF",
";+	c #413CCB",
">+	c #4938B8",
",+	c #5C4394",
"'+	c #5F3A43",
")+	c #CF4040",
"!+	c #E94141",
"~+	c #ED4141",
"{+	c #EF4141",
"]+	c #F2693D",
"^+	c #FACA31",
"/+	c #F1693D",
"(+	c #ED4242",
"_+	c #EE4141",
":+	c #F33D61",
"<+	c #FC33A7",
"[+	c #F43D61",
"}+	c #F14140",
"|+	c #EF3E3C",
"1+	c #EB3A35",
"2+	c #732222",
"3+	c #790F0F",
"4+	c #900909",
"5+	c #9A0707",
"6+	c #9B0606",
"7+	c #970A0A",
"8+	c #95080C",
"9+	c #860A1A",
"0+	c #860C1E",
"a+	c #9D0C1A",
"b+	c #AE1216",
"c+	c #B31919",
"d+	c #DD3737",
"e+	c #F04141",
"f+	c #F4763C",
"g+	c #FDDE35",
"h+	c #F5763D",
"i+	c #EC4141",
"j+	c #F43D60",
"k+	c #F93198",
"l+	c #F62F8F",
"m+	c #EE3856",
"n+	c #E53B37",
"o+	c #E13831",
"p+	c #E6372F",
"q+	c #E23228",
"r+	c #D52819",
"s+	c #C21C0D",
"t+	c #1B1700",
"u+	c #8F0202",
"v+	c #9B0202",
"w+	c #9F0202",
"x+	c #A20202",
"y+	c #A00303",
"z+	c #A10303",
"A+	c #BE1919",
"B+	c #E93A3A",
"C+	c #E53737",
"D+	c #EF3F3F",
"E+	c #EF4040",
"F+	c #F06B35",
"G+	c #EEC621",
"H+	c #E7BF18",
"I+	c #D85311",
"J+	c #C61F0B",
"K+	c #B71E09",
"L+	c #BF1D0D",
"M+	c #C01A0E",
"N+	c #BE1413",
"O+	c #C40B14",
"P+	c #C60A13",
"Q+	c #BB110D",
"R+	c #B71606",
"S+	c #B91905",
"T+	c #AE1A03",
"U+	c #AB1402",
"V+	c #B11102",
"W+	c #A60601",
"X+	c #720000",
"Y+	c #890101",
"Z+	c #A30303",
"`+	c #A20404",
" @	c #A30404",
".@	c #B91616",
"+@	c #B71313",
"@@	c #CD2116",
"#@	c #CB1F0B",
"$@	c #CC4003",
"%@	c #D38D00",
"&@	c #D59500",
"*@	c #CA3E00",
"=@	c #B71000",
"-@	c #AF0B00",
";@	c #AD0A00",
">@	c #A40500",
",@	c #A30400",
"'@	c #A30300",
")@	c #A40400",
"!@	c #A50500",
"~@	c #AA0700",
"{@	c #AC0800",
"]@	c #A30500",
"^@	c #2A0000",
"/@	c #740303",
"(@	c #980303",
"_@	c #9E0202",
":@	c #B40303",
"<@	c #A20303",
"[@	c #A30505",
"}@	c #A00404",
"|@	c #AF0A00",
"1@	c #B61702",
"2@	c #CC4E03",
"3@	c #D28300",
"4@	c #D28700",
"5@	c #C24200",
"6@	c #A40900",
"7@	c #2D2D00",
"8@	c #302000",
"9@	c #5E0803",
"0@	c #820A0A",
"a@	c #890707",
"b@	c #9E0303",
"c@	c #950202",
"d@	c #840000",
"e@	c #A30401",
"f@	c #AE1303",
"g@	c #C93E03",
"h@	c #202003",
"i@	c #1D1C0B",
"j@	c #221C09",
"k@	c #282001",
"l@	c #3B2710",
"m@	c #640B0A",
"n@	c #9B0505",
"o@	c #990303",
"p@	c #A20808",
"q@	c #A00505",
"r@	c #A10707",
"s@	c #A00606",
"t@	c #950505",
"u@	c #9E0707",
"v@	c #990B01",
"w@	c #232302",
"x@	c #0F0F53",
"y@	c #0A0A5A",
"z@	c #0B0B5D",
"A@	c #0A0A57",
"B@	c #080837",
"C@	c #151434",
"D@	c #1D1522",
"E@	c #211226",
"F@	c #21132D",
"G@	c #39170A",
"H@	c #441C05",
"I@	c #451C02",
"J@	c #46464A",
"K@	c #343462",
"L@	c #272796",
"M@	c #252599",
"N@	c #191964",
"O@	c #0D0D3D",
"P@	c #0A0A3A",
"Q@	c #0A0A54",
"R@	c #0B0B62",
"S@	c #0C0C63",
"T@	c #0C0C62",
"U@	c #0C0C61",
"V@	c #070745",
"W@	c #252501",
"X@	c #3B3B5C",
"Y@	c #181886",
"Z@	c #2424C8",
"`@	c #2222C2",
" #	c #1C1CA7",
".#	c #101071",
"+#	c #0B0B5E",
"@#	c #080851",
"##	c #090952",
"$#	c #18182B",
"%#	c #313161",
"&#	c #1C1C9A",
"*#	c #2525C9",
"=#	c #191998",
"-#	c #0D0D68",
";#	c #0D0D66",
">#	c #08084E",
",#	c #0A0A56",
"'#	c #09092D",
")#	c #1E1E16",
"!#	c #404050",
"~#	c #1A1A6E",
"{#	c #1D1D9D",
"]#	c #1E1EA7",
"^#	c #2222BC",
"/#	c #2222BA",
"(#	c #131380",
"_#	c #080849",
":#	c #000021",
"<#	c #10101E",
"[#	c #17170D",
"}#	c #1C1C05",
"|#	c #212100",
"1#	c #2B2B00",
"                                                                                                                                ",
"                                                    . . . . . . . . . . . .                                                     ",
"                                            . . . . . . . . . . . . . . . . . . . .                                             ",
"                                        . . . . . . . . . . . . . . . . . . . . . . . .                                         ",
"                                  . . . . . . . . . . . . . . . . . . . . . . . . . . . . . .                                   ",
"                                . . . . . . . . . . . . . . . . . . . . . . . . . . . . . . . .                                 ",
"                            . . . . . . . . . . . . . . . . . . . . . . . . . . . . . . . . . . . .                             ",
"                          . . . . . . . . . . . . . . . . . . . . . . . . . . . . . . . . . . . . . .                           ",
"                      . . . . . . . . . . . . . . . . . . . . . . . . . . . . . . . . . . . . . . . . . .                       ",
"                    . . . . . . . . . . . . . . . . . . . . . . . . . . . . . . . . . . . . . . . . . . . .                     ",
"                  . . . . . . . . . . . . . . . . . . . . . . . . . . . . . . . . . . . . . . . . . . . . . .                   ",
"                . . . . . . . . . . . . . . . . . . . . . . . . . . . . . . . . . . . . . . . . . . . . . . . .                 ",
"              . . . . . . . . . . . . . . . . . . . . . . . . . . . . . . . . . . . . . . . . . . . . . . . . . .               ",
"            . . . . . . . . . . . . . . . . . . . . . . . . . . . . . . . . . . . . . . . . . . . . . . . . . . . .             ",
"            . . . . . . . . . . . . . . . . . . . . . . . . . . . . . . . . . . . . . . . . . . . . . . . . . . . .             ",
"          . . . . . . . . . . . . . . . . . . . . . . . . . . . . . . . . . . . . . . . . . . . . . . . . . . . . . .           ",
"        . . . . . . . . . . . . . . . . . . . . . . . . . . . . . . . . . . . . . . . . . . . . . . . . . . . . . . . .         ",
"        . . . . . . . . . . . . . . . . . . . . . . . . . . . . . . . . . . . . . . . . . . . . . . . . . . . . . . . .         ",
"      . . . . . . . . . . . . . . . . . . . . . . . . . . . . . . . . . . . . . . . . . . . . . . . . . . . . . . . . . .       ",
"      . . . . . . . . . . . . . . . . . . . . . . . . . . . . . . . . . . . . . . . . . . . . . . . . . . . . . . . . . .       ",
"    . . . . . . . . . . . . . . . . . . . . . . . . . . . . . . . . . . . . . . . . . . . . . . . . . . . . . . . . . . . .     ",
"    . . . . . . . . . . . + + + + + + + + + + + + + + + + + . . . . . . . . . . . . . . . . . . . . . . . . . . . . . . . .     ",
"    . . . . . . . . . . . + @ # $ % & * * = - - ; > , ' ) ! + . . . . . . . . . . . . . . . . . . . . . . . . . . . . . . .     ",
"  . . . . . . . . . . . . + ~ - - { { { { { { { ] ] - ^ / ( _ + . . . . . . . . . . . . . . . . . . . . . . . . . . . . . . .   ",
"  . . . . . . . . . . . . + : < [ } ] ] - ] * | ] ] { { ] | 1 2 + . . . . . . . . . . . . . . . . . . . . . . . . . . . . . .   ",
"  . . . . . . . . . . . . + 3 4 5 6 7 8 9 0 ] ] { a b ^ - - c d e + . . . . . . . . . . . . . . . . . . . . . . . . . . . . .   ",
"  . . . . . . . . . . . . . + + + + + + f g h i j k l m n o p q r s + + . . . . . . . . . . . . . . . . . . . . . . . . . . .   ",
". . . . . . . . . . . . . . . . . . . . + t u v w x y z A B C D E F G H + + . . . . . . . . . . . . . . . . . . . . . . . . . . ",
". . . . . . . . . . . . . . . . . . . . + I J K K L M N O P Q R S T U T V W + + + + + + . . . . . . . . . . . . . . . . . . . . ",
". . . . . . . . . . . . . . . . . . . . + X Y Z `  ...+.@.#.$.%.&.*.=.-.;.>.,.'.).!.~.{.+ + + + + + + + . . . . . . . . . . . . ",
". . . . . . . . . . . . . + + + + + + + ].^./.(._.:.<.[.}.|.1.2.3.4.5.6.7.8.9.0.a.b.c.d.e.f.g.h.i.j.k.l.+ + . . . . . . . . . . ",
". . . . . . . . . . . . . + m.n.o.p.q.r.s.t.u.v.w.{ x.y.z.A.B.C.D.E.F.G.H.I.J.K.L.M.N.O.P.Q.R.S.T.U.V.W.X.W.+ . . . . . . . . . ",
". . . . . . . . . . . . . + Y.Z.`. +.+++@+#+$+%+&+*+=+-+;+>+,+'+)+!+!+~+{+]+^+^+/+{+(+(+_+:+<+<+[+W.X.X.}+|+1++ . . . . . . . . ",
". . . . . . . . . . . . . + + + + + + + 2+3+4+5+6+7+8+9+0+a+b+c+d+e+e+X.X.f+g+g+h+{+e+i+W.j+k+l+m+n+o+p+q+r+s+s+t+. . . . . . . ",
". . . . . . . . . . . . . . . . . . . + u+v+w+w+w+w+w+x+x+y+z+z+A+B+C+D+E+F+G+H+I+J+K+L+M+N+O+P+Q+R+S+T+U+V+W++ . . . . . . . . ",
". . . . . . . . . . . . . . . . . . . + X+Y+v+w+w+w+Z+x+`+ @y+y+`+.@+@@@#@$@%@&@*@=@-@;@>@,@'@)@,@!@~@{@)@]@+ . . . . . . . . . ",
". . . . . . . . . . . . . . . . . . . . + ^@/@(@_@w+:@<@z+z+<@[@z+}@ @|@1@2@3@4@5@6@+ + + + + + + + + + + + . . . . . . . . . . ",
". . . . . . . . . . . . . . . . . . . . + 7@8@9@0@a@ @w+b@z+y+[@`+c@d@e@f@g@3@+ + + . . . . . . . . . . . . . . . . . . . . . . ",
"  . . . . . . . . . . . . . . . . . . . + h@i@j@k@l@m@n@o@p@q@r@s@t@u@v@+ + + . . . . . . . . . . . . . . . . . . . . . . . .   ",
"  . . . . . . . . . . . . . + + + + + + w@x@y@z@A@B@C@D@E@F@G@H@I@+ + + . . . . . . . . . . . . . . . . . . . . . . . . . . .   ",
"  . . . . . . . . . . . . + J@K@L@M@N@O@P@Q@R@S@S@T@S@U@T@T@V@W@+ . . . . . . . . . . . . . . . . . . . . . . . . . . . . . .   ",
"  . . . . . . . . . . . . + X@Y@Z@i `@ #.#S@+#y@@###U@U@T@+#$#+ . . . . . . . . . . . . . . . . . . . . . . . . . . . . . . .   ",
"    . . . . . . . . . . . + %#&#| Z@Z@*#=#-#;#S@z@>#,#V@'#)#+ . . . . . . . . . . . . . . . . . . . . . . . . . . . . . . .     ",
"    . . . . . . . . . . . + !#~#{#]#^#/#c (#_#:#<#[#}#|#1#+ . . . . . . . . . . . . . . . . . . . . . . . . . . . . . . . .     ",
"    . . . . . . . . . . . + + + + + + + + + + + + + + + + . . . . . . . . . . . . . . . . . . . . . . . . . . . . . . . . .     ",
"      . . . . . . . . . . . . . . . . . . . . . . . . . . . . . . . . . . . . . . . . . . . . . . . . . . . . . . . . . .       ",
"      . . . . . . . . . . . . . . . . . . . . . . . . . . . . . . . . . . . . . . . . . . . . . . . . . . . . . . . . . .       ",
"        . . . . . . . . . . . . . . . . . . . . . . . . . . . . . . . . . . . . . . . . . . . . . . . . . . . . . . . .         ",
"        . . . . . . . . . . . . . . . . . . . . . . . . . . . . . . . . . . . . . . . . . . . . . . . . . . . . . . . .         ",
"          . . . . . . . . . . . . . . . . . . . . . . . . . . . . . . . . . . . . . . . . . . . . . . . . . . . . . .           ",
"            . . . . . . . . . . . . . . . . . . . . . . . . . . . . . . . . . . . . . . . . . . . . . . . . . . . .             ",
"            . . . . . . . . . . . . . . . . . . . . . . . . . . . . . . . . . . . . . . . . . . . . . . . . . . . .             ",
"              . . . . . . . . . . . . . . . . . . . . . . . . . . . . . . . . . . . . . . . . . . . . . . . . . .               ",
"                . . . . . . . . . . . . . . . . . . . . . . . . . . . . . . . . . . . . . . . . . . . . . . . .                 ",
"                  . . . . . . . . . . . . . . . . . . . . . . . . . . . . . . . . . . . . . . . . . . . . . .                   ",
"                    . . . . . . . . . . . . . . . . . . . . . . . . . . . . . . . . . . . . . . . . . . . .                     ",
"                      . . . . . . . . . . . . . . . . . . . . . . . . . . . . . . . . . . . . . . . . . .                       ",
"                          . . . . . . . . . . . . . . . . . . . . . . . . . . . . . . . . . . . . . .                           ",
"                            . . . . . . . . . . . . . . . . . . . . . . . . . . . . . . . . . . . .                             ",
"                                . . . . . . . . . . . . . . . . . . . . . . . . . . . . . . . .                                 ",
"                                  . . . . . . . . . . . . . . . . . . . . . . . . . . . . . .                                   ",
"                                        . . . . . . . . . . . . . . . . . . . . . . . .                                         ",
"                                            . . . . . . . . . . . . . . . . . . . .                                             ",
"                                                    . . . . . . . . . . . .                                                     "};
