/* XPM */
static char * spacerocks_xpm[] = {
"44 24 397 2",
"  	c None",
". 	c #000000",
"+ 	c #383869",
"@ 	c #1D1DA3",
"# 	c #1D1DA1",
"$ 	c #2121B7",
"% 	c #2424C7",
"& 	c #2525CE",
"* 	c #2525CF",
"= 	c #2626CF",
"- 	c #2727CC",
"; 	c #2727CA",
"> 	c #2E2EA7",
", 	c #39396B",
"' 	c #42425D",
") 	c #434348",
"! 	c #24249E",
"~ 	c #2626D1",
"{ 	c #2626D0",
"] 	c #2424C5",
"^ 	c #2525BB",
"/ 	c #343493",
"( 	c #414160",
"_ 	c #2A2A8C",
": 	c #2121B5",
"< 	c #2323C0",
"[ 	c #2424C6",
"} 	c #2525CD",
"| 	c #2E2EAB",
"1 	c #42425B",
"2 	c #404055",
"3 	c #262677",
"4 	c #1B1B87",
"5 	c #29297E",
"6 	c #2A2A95",
"7 	c #2828B6",
"8 	c #2828C0",
"9 	c #2525C3",
"0 	c #2525CB",
"a 	c #2323C1",
"b 	c #2020B2",
"c 	c #3E3E63",
"d 	c #474747",
"e 	c #3E3E68",
"f 	c #353583",
"g 	c #2222BD",
"h 	c #2525CC",
"i 	c #2323C3",
"j 	c #1F1F77",
"k 	c #3D3D58",
"l 	c #3B3B69",
"m 	c #353592",
"n 	c #443FA0",
"o 	c #746597",
"p 	c #736F78",
"q 	c #494D57",
"r 	c #353942",
"s 	c #43434A",
"t 	c #3A3A67",
"u 	c #38387F",
"v 	c #5F4E7C",
"w 	c #D9939A",
"x 	c #FEC2C2",
"y 	c #F3BEC0",
"z 	c #B99099",
"A 	c #B9949E",
"B 	c #F29FA0",
"C 	c #B8717B",
"D 	c #222141",
"E 	c #161B3D",
"F 	c #2B2846",
"G 	c #1F2B46",
"H 	c #5D5555",
"I 	c #F09393",
"J 	c #FFACAC",
"K 	c #FEB7B7",
"L 	c #FFC6C6",
"M 	c #C098A1",
"N 	c #303250",
"O 	c #30314F",
"P 	c #BF737C",
"Q 	c #B86E78",
"R 	c #13193C",
"S 	c #001035",
"T 	c #011035",
"U 	c #081538",
"V 	c #2A303E",
"W 	c #E8A9BA",
"X 	c #EEB6C4",
"Y 	c #F2C6D0",
"Z 	c #F7B7BD",
"` 	c #FEBBBC",
" .	c #FF9B9B",
"..	c #E48387",
"+.	c #855365",
"@.	c #845264",
"#.	c #E07E82",
"$.	c #EB7E7F",
"%.	c #9E5663",
"&.	c #432D48",
"*.	c #171A3B",
"=.	c #021136",
"-.	c #031136",
";.	c #604557",
">.	c #EFC089",
",.	c #EFC372",
"'.	c #EE9888",
").	c #E08383",
"!.	c #D27B7B",
"~.	c #DC8282",
"{.	c #3F3FCE",
"].	c #9488DD",
"^.	c #BAACE4",
"/.	c #B4A5E2",
"(.	c #B497D1",
"_.	c #9B7BB8",
":.	c #CC95BC",
"<.	c #D592B0",
"[.	c #CA859F",
"}.	c #CF819A",
"|.	c #E47784",
"1.	c #EE6466",
"2.	c #EE5B5B",
"3.	c #E85657",
"4.	c #BC4C54",
"5.	c #703548",
"6.	c #6F394D",
"7.	c #CF8263",
"8.	c #FAE26D",
"9.	c #FDE672",
"0.	c #F8A17B",
"a.	c #F57E7E",
"b.	c #F37777",
"c.	c #F67F7F",
"d.	c #FA8A8A",
"e.	c #FD8DA1",
"f.	c #FD86C8",
"g.	c #FC78C2",
"h.	c #F8869B",
"i.	c #FD9090",
"j.	c #FF9191",
"k.	c #E08888",
"l.	c #19197E",
"m.	c #1A1A7D",
"n.	c #1E1E7D",
"o.	c #282889",
"p.	c #3131C2",
"q.	c #3535CD",
"r.	c #3333CA",
"s.	c #3232C9",
"t.	c #3232C5",
"u.	c #2E2EC9",
"v.	c #2828CF",
"w.	c #2424D3",
"x.	c #2C2CD1",
"y.	c #2F2FC6",
"z.	c #2D2CAC",
"A.	c #8A4194",
"B.	c #CC4351",
"C.	c #DD4343",
"D.	c #EC4444",
"E.	c #ED4949",
"F.	c #E84B4B",
"G.	c #E94D4D",
"H.	c #EE7543",
"I.	c #FBD637",
"J.	c #FBD639",
"K.	c #F07846",
"L.	c #EC4D4D",
"M.	c #ED4C4C",
"N.	c #EE4B4B",
"O.	c #EE4F4F",
"P.	c #F24A6B",
"Q.	c #FC3EA9",
"R.	c #FC40AA",
"S.	c #F44466",
"T.	c #F24343",
"U.	c #F24242",
"V.	c #F14141",
"W.	c #F24141",
"X.	c #6A6AA1",
"Y.	c #6D6D9F",
"Z.	c #6E6E9E",
"`.	c #717199",
" +	c #676799",
".+	c #68689A",
"++	c #656290",
"@+	c #725A8A",
"#+	c #7C5182",
"$+	c #7F558C",
"%+	c #764E98",
"&+	c #6C4FA0",
"*+	c #6548A7",
"=+	c #4F43BF",
"-+	c #413CCB",
";+	c #4938B8",
">+	c #5C4394",
",+	c #5F3A43",
"'+	c #CF4040",
")+	c #E94141",
"!+	c #ED4141",
"~+	c #EF4141",
"{+	c #F2693D",
"]+	c #FACA31",
"^+	c #F1693D",
"/+	c #ED4242",
"(+	c #EE4141",
"_+	c #F33D61",
":+	c #FC33A7",
"<+	c #F43D61",
"[+	c #F14140",
"}+	c #EF3E3C",
"|+	c #EB3A35",
"1+	c #732222",
"2+	c #790F0F",
"3+	c #900909",
"4+	c #9A0707",
"5+	c #9B0606",
"6+	c #970A0A",
"7+	c #95080C",
"8+	c #860A1A",
"9+	c #860C1E",
"0+	c #9D0C1A",
"a+	c #AE1216",
"b+	c #B31919",
"c+	c #DD3737",
"d+	c #F04141",
"e+	c #F4763C",
"f+	c #FDDE35",
"g+	c #F5763D",
"h+	c #EC4141",
"i+	c #F43D60",
"j+	c #F93198",
"k+	c #F62F8F",
"l+	c #EE3856",
"m+	c #E53B37",
"n+	c #E13831",
"o+	c #E6372F",
"p+	c #E23228",
"q+	c #D52819",
"r+	c #C21C0D",
"s+	c #1B1700",
"t+	c #8F0202",
"u+	c #9B0202",
"v+	c #9F0202",
"w+	c #A20202",
"x+	c #A00303",
"y+	c #A10303",
"z+	c #BE1919",
"A+	c #E93A3A",
"B+	c #E53737",
"C+	c #EF3F3F",
"D+	c #EF4040",
"E+	c #F06B35",
"F+	c #EEC621",
"G+	c #E7BF18",
"H+	c #D85311",
"I+	c #C61F0B",
"J+	c #B71E09",
"K+	c #BF1D0D",
"L+	c #C01A0E",
"M+	c #BE1413",
"N+	c #C40B14",
"O+	c #C60A13",
"P+	c #BB110D",
"Q+	c #B71606",
"R+	c #B91905",
"S+	c #AE1A03",
"T+	c #AB1402",
"U+	c #B11102",
"V+	c #A60601",
"W+	c #720000",
"X+	c #890101",
"Y+	c #A30303",
"Z+	c #A20404",
"`+	c #A30404",
" @	c #B91616",
".@	c #B71313",
"+@	c #CD2116",
"@@	c #CB1F0B",
"#@	c #CC4003",
"$@	c #D38D00",
"%@	c #D59500",
"&@	c #CA3E00",
"*@	c #B71000",
"=@	c #AF0B00",
"-@	c #AD0A00",
";@	c #A40500",
">@	c #A30400",
",@	c #A30300",
"'@	c #A40400",
")@	c #A50500",
"!@	c #AA0700",
"~@	c #AC0800",
"{@	c #A30500",
"]@	c #2A0000",
"^@	c #740303",
"/@	c #980303",
"(@	c #9E0202",
"_@	c #B40303",
":@	c #A20303",
"<@	c #A30505",
"[@	c #A00404",
"}@	c #AF0A00",
"|@	c #B61702",
"1@	c #CC4E03",
"2@	c #D28300",
"3@	c #D28700",
"4@	c #C24200",
"5@	c #A40900",
"6@	c #2D2D00",
"7@	c #302000",
"8@	c #5E0803",
"9@	c #820A0A",
"0@	c #890707",
"a@	c #9E0303",
"b@	c #950202",
"c@	c #840000",
"d@	c #A30401",
"e@	c #AE1303",
"f@	c #C93E03",
"g@	c #202003",
"h@	c #1D1C0B",
"i@	c #221C09",
"j@	c #282001",
"k@	c #3B2710",
"l@	c #640B0A",
"m@	c #9B0505",
"n@	c #990303",
"o@	c #A20808",
"p@	c #A00505",
"q@	c #A10707",
"r@	c #A00606",
"s@	c #950505",
"t@	c #9E0707",
"u@	c #990B01",
"v@	c #232302",
"w@	c #0F0F53",
"x@	c #0A0A5A",
"y@	c #0B0B5D",
"z@	c #0A0A57",
"A@	c #080837",
"B@	c #151434",
"C@	c #1D1522",
"D@	c #211226",
"E@	c #21132D",
"F@	c #39170A",
"G@	c #441C05",
"H@	c #451C02",
"I@	c #46464A",
"J@	c #343462",
"K@	c #272796",
"L@	c #252599",
"M@	c #191964",
"N@	c #0D0D3D",
"O@	c #0A0A3A",
"P@	c #0A0A54",
"Q@	c #0B0B62",
"R@	c #0C0C63",
"S@	c #0C0C62",
"T@	c #0C0C61",
"U@	c #070745",
"V@	c #252501",
"W@	c #3B3B5C",
"X@	c #181886",
"Y@	c #2424C8",
"Z@	c #2222C2",
"`@	c #1C1CA7",
" #	c #101071",
".#	c #0B0B5E",
"+#	c #080851",
"@#	c #090952",
"##	c #18182B",
"$#	c #313161",
"%#	c #1C1C9A",
"&#	c #2525C9",
"*#	c #191998",
"=#	c #0D0D68",
"-#	c #0D0D66",
";#	c #08084E",
">#	c #0A0A56",
",#	c #09092D",
"'#	c #1E1E16",
")#	c #404050",
"!#	c #1A1A6E",
"~#	c #1D1D9D",
"{#	c #1E1EA7",
"]#	c #2222BC",
"^#	c #2222BA",
"/#	c #131380",
"(#	c #080849",
"_#	c #000021",
":#	c #10101E",
"<#	c #17170D",
"[#	c #1C1C05",
"}#	c #212100",
"|#	c #2B2B00",
". . . . . . . . . . . . . . . . .                                                       ",
". + @ # $ % & & * = = - ; > , ' ) .                                                     ",
". ! = = ~ ~ ~ ~ ~ ~ ~ { { = ] ^ / ( .                                                   ",
". _ : < [ { { = { & } { { ~ ~ { } | 1 .                                                 ",
". 2 3 4 5 6 7 8 9 { { ~ 0 a ] = = b c d .                                               ",
"  . . . . . . e f g h i j k l m n o p q r . .                                           ",
"              . s t u v w x y z A B C D E F G . .                                       ",
"              . H I J J K L M N O P Q R S T S U V . . . . . .                           ",
"              . W X Y Z `  ...+.@.#.$.%.&.*.=.-.;.>.,.'.).!.~.. . . . . . . .           ",
". . . . . . . {.].^./.(._.:.<.[.}.|.1.2.3.4.5.6.7.8.9.0.a.b.c.d.e.f.g.h.i.j.k.. .       ",
". l.m.n.o.p.q.r.s.t.u.v.~ w.x.y.z.A.B.C.D.E.F.G.H.I.J.K.L.M.N.O.P.Q.R.S.T.U.V.W.V..     ",
". X.Y.Z.`. +.+++@+#+$+%+&+*+=+-+;+>+,+'+)+)+!+~+{+]+]+^+~+/+/+(+_+:+:+<+V.W.W.[+}+|+.   ",
". . . . . . . 1+2+3+4+5+6+7+8+9+0+a+b+c+d+d+W.W.e+f+f+g+~+d+h+V.i+j+k+l+m+n+o+p+q+r+r+s+",
"            . t+u+v+v+v+v+v+w+w+x+y+y+z+A+B+C+D+E+F+G+H+I+J+K+L+M+N+O+P+Q+R+S+T+U+V+.   ",
"            . W+X+u+v+v+v+Y+w+Z+`+x+x+Z+ @.@+@@@#@$@%@&@*@=@-@;@>@,@'@>@)@!@~@'@{@.     ",
"              . ]@^@/@(@v+_@:@y+y+:@<@y+[@`+}@|@1@2@3@4@5@. . . . . . . . . . . .       ",
"              . 6@7@8@9@0@`+v+a@y+x+<@Z+b@c@d@e@f@2@. . .                               ",
"              . g@h@i@j@k@l@m@n@o@p@q@r@s@t@u@. . .                                     ",
"  . . . . . . v@w@x@y@z@A@B@C@D@E@F@G@H@. . .                                           ",
". I@J@K@L@M@N@O@P@Q@R@R@S@R@T@S@S@U@V@.                                                 ",
". W@X@Y@h Z@`@ #R@.#x@+#@#T@T@S@.###.                                                   ",
". $#%#} Y@Y@&#*#=#-#R@y@;#>#U@,#'#.                                                     ",
". )#!#~#{#]#^#b /#(#_#:#<#[#}#|#.                                                       ",
". . . . . . . . . . . . . . . .                                                         "};
